<?xml version="1.0" encoding="UTF-8" standalone="no"?>
<!-- Created with Inkscape (http://www.inkscape.org/) -->

<svg
   xmlns:dc="http://purl.org/dc/elements/1.1/"
   xmlns:cc="http://creativecommons.org/ns#"
   xmlns:rdf="http://www.w3.org/1999/02/22-rdf-syntax-ns#"
   xmlns:svg="http://www.w3.org/2000/svg"
   xmlns="http://www.w3.org/2000/svg"
   xmlns:sodipodi="http://sodipodi.sourceforge.net/DTD/sodipodi-0.dtd"
   xmlns:inkscape="http://www.inkscape.org/namespaces/inkscape"
   width="404.65457"
   height="99.094444"
   id="svg2"
   version="1.1"
   inkscape:version="0.48.4 r9939"
   sodipodi:docname="ppcom-white.svg">
  <defs
     id="defs4" />
  <sodipodi:namedview
     id="base"
     pagecolor="#000000"
     bordercolor="#666666"
     borderopacity="1.0"
     inkscape:pageopacity="1"
     inkscape:pageshadow="2"
     inkscape:zoom="0.98994949"
     inkscape:cx="285.34592"
     inkscape:cy="-149.70147"
     inkscape:document-units="px"
     inkscape:current-layer="layer1"
     showgrid="false"
     inkscape:window-width="1366"
     inkscape:window-height="713"
     inkscape:window-x="0"
     inkscape:window-y="159"
     inkscape:window-maximized="1"
     fit-margin-top="0"
     fit-margin-left="0"
     fit-margin-right="0"
     fit-margin-bottom="0" />
  <metadata
     id="metadata7">
    <rdf:RDF>
      <cc:Work
         rdf:about="">
        <dc:format>image/svg+xml</dc:format>
        <dc:type
           rdf:resource="http://purl.org/dc/dcmitype/StillImage" />
        <dc:title></dc:title>
      </cc:Work>
    </rdf:RDF>
  </metadata>
  <g
     inkscape:label="Layer 1"
     inkscape:groupmode="layer"
     id="layer1"
     transform="translate(-7.6808111,-15.216769)">
    <g
       id="g3030"
       transform="translate(7.6802023,15.409448)">
      <g
         id="g2986">
        <g
           id="g2988">
          <g
             id="g2990">
            <path
               id="path2992"
               d="m 311.628,21.955 -22.251,0 c -1.521,0 -2.816,1.107 -3.053,2.61 l -8.998,57.053 c -0.177,1.126 0.692,2.144 1.832,2.144 l 11.417,0 c 1.064,0 23.40057,-0.05971 23.56557,-1.112714 L 295.264,65.761 c 0.237,-1.503 -1.70146,6.917748 -0.51743,5.961429 L 305.359,63.151 c 11.40081,-9.208184 23.113,-7.093 25.324,-21.15 0.995,-6.148 0.04,-10.979 -2.839,-14.361 -3.164,-3.719 -8.772,-5.685 -16.216,-5.685 z m 2.568,20.837 c -1.216,7.987 -7.315,7.987 -13.216,7.987 l -3.356,0 2.354,-14.912 c 0.143,-0.902 0.92,-1.566 1.832,-1.566 l 1.539,0 c 4.016,0 7.81,0 9.765,2.288 1.171,1.37 1.524,3.399 1.082,6.203 z"
               inkscape:connector-curvature="0"
               style="fill:#ffffff"
               sodipodi:nodetypes="ssccssccssccscsccsscc" />
            <path
               id="path2994"
               d="m 152.932,21.955 h -22.25 c -1.521,0 -2.816,1.107 -3.054,2.61 l -8.998,57.053 c -0.177,1.126 0.693,2.144 1.833,2.144 h 10.624 c 1.521,0 2.816,-1.106 3.054,-2.609 l 2.428,-15.392 c 0.237,-1.503 1.532,-2.61 3.053,-2.61 h 7.041 c 14.656,0 23.114,-7.093 25.325,-21.15 0.995,-6.148 0.04,-10.979 -2.838,-14.361 -3.166,-3.719 -8.775,-5.685 -16.218,-5.685 z m 2.568,20.837 c -1.216,7.987 -7.316,7.987 -13.215,7.987 h -3.357 l 2.354,-14.912 c 0.143,-0.902 0.919,-1.566 1.832,-1.566 h 1.539 c 4.016,0 7.81,0 9.765,2.288 1.17,1.37 1.524,3.399 1.082,6.203 z"
               inkscape:connector-curvature="0"
               style="fill:#ffffff" />
            <path
               id="path2996"
               d="m 219.435,42.537 h -10.653 c -0.913,0 -1.69,0.664 -1.833,1.566 l -0.468,2.979 -0.745,-1.079 c -2.308,-3.349 -7.45,-4.468 -12.585,-4.468 -11.77,0 -21.826,8.92 -23.783,21.43 -1.019,6.241 0.427,12.206 3.966,16.369 3.251,3.825 7.891,5.417 13.419,5.417 9.487,0 14.75,-6.096 14.75,-6.096 l -0.476,2.962 c -0.179,1.126 0.691,2.145 1.832,2.145 h 9.595 c 1.521,0 2.815,-1.106 3.053,-2.608 l 5.76,-36.473 c 0.178,-1.127 -0.692,-2.144 -1.832,-2.144 z m -14.848,20.738 c -1.029,6.087 -5.862,10.174 -12.026,10.174 -3.09,0 -5.564,-0.994 -7.154,-2.876 -1.576,-1.865 -2.169,-4.523 -1.669,-7.483 0.959,-6.033 5.87,-10.252 11.94,-10.252 3.025,0 5.482,1.003 7.103,2.903 1.632,1.913 2.273,4.588 1.806,7.534 z"
               inkscape:connector-curvature="0"
               style="fill:#ffffff" />
            <path
               id="path2998"
               d="m 378.131,42.537 h -10.653 c -0.913,0 -1.69,0.664 -1.832,1.566 l -0.469,2.979 -0.745,-1.079 c -2.308,-3.349 -7.45,-4.468 -12.585,-4.468 -11.771,0 -21.826,8.92 -23.782,21.43 -1.019,6.241 0.427,12.206 3.966,16.369 3.251,3.825 7.891,5.417 13.419,5.417 9.487,0 14.75,-6.096 14.75,-6.096 l -0.476,2.962 c -0.179,1.126 0.691,2.145 1.832,2.145 h 9.595 c 1.521,0 2.815,-1.106 3.053,-2.608 l 5.76,-36.473 c 0.178,-1.127 -0.693,-2.144 -1.833,-2.144 z m -14.847,20.738 c -1.029,6.087 -5.861,10.174 -12.025,10.174 -3.091,0 -5.564,-0.994 -7.155,-2.876 -1.575,-1.865 -2.169,-4.523 -1.669,-7.483 0.96,-6.033 5.869,-10.252 11.939,-10.252 3.025,0 5.482,1.003 7.104,2.903 1.631,1.913 2.272,4.588 1.806,7.534 z"
               inkscape:connector-curvature="0"
               style="fill:#ffffff" />
            <path
               id="path3000"
               d="m 276.181,42.537 h -10.709 c -1.024,0 -1.982,0.509 -2.558,1.356 l -14.772,21.756 -6.261,-20.907 c -0.392,-1.308 -1.596,-2.206 -2.961,-2.206 h -10.527 c -1.271,0 -2.165,1.25 -1.756,2.454 l 11.792,34.612 -11.091,15.648 c -0.871,1.229 0.008,2.928 1.514,2.928 h 10.698 c 1.014,0 1.963,-0.497 2.541,-1.331 l 35.614,-51.399 c 0.852,-1.229 -0.028,-2.911 -1.524,-2.911 z"
               inkscape:connector-curvature="0"
               style="fill:#ffffff" />
            <path
               id="path3002"
               d="m 390.69,23.522 -9.133,58.097 c -0.177,1.125 0.693,2.143 1.832,2.143 h 9.185 c 1.521,0 2.816,-1.106 3.054,-2.609 L 404.632,24.1 c 0.178,-1.126 -0.692,-2.144 -1.832,-2.144 h -10.277 c -0.914,-0.001 -1.691,0.664 -1.833,1.566 z"
               inkscape:connector-curvature="0"
               style="fill:#ffffff" />
          </g>
        </g>
      </g>
      <g
         id="g3004">
        <path
           id="path3006"
           d="M 74.981,24.944 C 76.179,17.306 74.973,12.11 70.842,7.402 66.294,2.22 58.078,0 47.566,0 L 17.052,0 C 14.904,0 13.074,1.563 12.74,3.686 L 0.033,84.258 c -0.25,1.59 0.979,3.027 2.587,3.027 l 18.838,0 -1.3,8.245 c -0.219,1.391 0.855,2.648 2.263,2.648 l 15.879,0 c 1.879,0 35.337141,2.20443 28.487285,-1.081143 L 65.085142,95.574572 45.219,75.178 45.412,74.13 c 0.293,-1.856 1.893,-3.225 3.772,-3.225 l 2.375,0 c 15.383,0 21.713714,8.751 25.232714,-9.323 1.471,-7.552 6.424286,-28.856 2.535286,-33.288 -1.175,-1.338 -2.639,-2.446 -4.346,-3.35 l 0,0"
           inkscape:connector-curvature="0"
           style="opacity:0.68000034;fill:#ffffff"
           sodipodi:nodetypes="ccssccsccssccccsscccc" />
        <path
           id="path3008"
           d="m 74.981,24.944 c 1.198,-7.638 -25.008,-3.548286 -29.139,-8.256286 -4.548,-5.182 21.702007,6.81023 9.581143,1.169429 L 17.052,0 C 15.104559,-0.90629905 13.074,1.563 12.74,3.686 L 0.033,84.258 c -0.25,1.59 0.979,3.027 2.587,3.027 l 18.838,0 4.732,-30.007 -0.147,0.941 c 0.335,-2.122 2.148,-3.686 4.297,-3.686 l 8.954,0 c 17.584,0 31.353,-7.144 35.375,-27.804 -19.165714,6.532857 -17.636143,-3.345857 -17.545143,-3.927857"
           inkscape:connector-curvature="0"
           style="opacity:0.7;fill:#ffffff"
           sodipodi:nodetypes="ccssccscccsscc" />
        <path
           id="path3010"
           d="m 31.274,25.045 c 0.201,-1.276 1.021,-2.322 2.124,-2.85 0.501,-0.24 13.919143,0.340286 14.506143,0.340286 l 23.919,0 c 2.834,0 -7.381143,-0.528286 -4.966143,-0.139286 0.69,0.111 1.362,0.239 2.015,0.384 0.652,0.145 1.286,0.306 1.899,0.486 0.307,0.089 0.608,0.184 0.905,0.282 1.186,0.394 2.291,0.858 3.307,1.397 C 76.181,17.307 74.975,12.111 70.844,7.403 66.294,2.22 58.078,0 47.566,0 L 28.480572,0 C 26.332572,0 13.074,1.563 12.74,3.686 L 0.033,84.258 c -0.25,1.59 0.979,3.027 2.587,3.027 l 18.838,0 4.732,-30.007 z"
           inkscape:connector-curvature="0"
           style="fill:#ffffff"
           sodipodi:nodetypes="ccssccccccssccsccc" />
      </g>
      <g
         id="g3012" />
      <g
         id="g3014" />
      <g
         id="g3016" />
      <g
         id="g3018" />
      <g
         id="g3020" />
      <g
         id="g3022" />
    </g>
  </g>
</svg>
